<?xml version="1.0" encoding="utf-8"?>
<svg viewBox="0 0 500 500" xmlns="http://www.w3.org/2000/svg">
  <title>wireless</title>
  <path d="M 250.018 318.304 C 245.751 318.32 241.491 317.795 237.288 316.73 C 230.674 313.986 224.508 309.271 219.17 302.866 C 217.947 301.413 216.804 299.839 215.661 298.204 C 206.448 284.577 201.307 266.044 201.381 246.745 C 201.401 227.474 206.53 208.992 215.661 195.287 C 224.844 181.622 237.337 173.987 250.345 174.097 C 263.333 174.127 275.791 181.743 285.03 195.287 C 299.604 217.063 303.436 250.045 294.618 277.801 C 286.784 303.634 269.084 319.702 250.018 318.304 Z M 96.145 441.865 C 99.466 447.623 101.16 455.063 100.879 462.631 C 100.559 470.277 98.283 477.444 94.514 482.669 L 93.9 483.455 C 90.016 488.42 84.981 490.944 79.863 490.478 C 74.743 490.024 69.936 486.664 66.44 481.095 L 65.786 479.885 C 45.074 445.909 28.217 407.157 15.883 365.16 C 4.841 327.468 -0.722 286.75 -0.44 245.656 C 0.173 204.356 6.623 163.703 18.494 126.332 C 31.833 84.644 49.668 46.468 71.294 13.304 L 71.825 12.517 C 75.44 7.334 80.222 4.315 85.251 4.041 C 90.523 3.774 95.643 6.676 99.451 12.093 L 99.899 12.819 C 103.42 18.141 105.473 25.223 105.653 32.676 C 105.824 40.479 103.869 48.053 100.226 53.684 L 99.939 54.168 C 81.696 82.332 66.549 114.57 55.055 149.699 C 45.22 179.958 39.867 212.982 39.345 246.564 C 39.108 280.073 43.629 313.284 52.605 344.032 C 63.106 378.861 77.219 411.032 94.432 439.382 C 94.859 439.777 95.259 440.241 95.615 440.775 L 96.145 441.623 L 96.145 441.865 Z M 170.654 353.175 C 173.596 359.078 174.948 366.397 174.449 373.697 C 173.943 381.399 171.368 388.463 167.307 393.313 L 166.533 394.221 C 162.55 398.573 157.622 400.575 152.701 399.85 C 147.497 399.118 142.716 395.298 139.438 389.256 L 139.071 388.591 C 127.609 367.921 118.371 344.741 111.692 319.878 C 105.473 296.484 102.225 271.59 102.102 246.443 C 102.05 221.585 105.167 196.939 111.283 173.794 C 117.955 148.865 127.234 125.661 138.785 105.021 C 148.334 87.404 167.153 91.733 172.661 112.813 C 175.22 122.589 174.065 133.656 169.635 141.83 L 169.635 142.133 C 160.947 157.611 153.925 174.987 148.824 193.652 C 139.41 227.397 139.41 265.307 148.824 299.052 C 154.067 318.133 161.22 335.932 170.043 351.843 L 170.736 353.356 L 170.654 353.175 Z M 434.211 480.914 C 430.682 486.435 425.862 489.746 420.746 490.175 C 415.499 490.695 410.337 488.01 406.464 482.73 C 402.53 477.54 400.152 470.246 399.854 462.449 C 399.563 454.735 401.371 447.168 404.873 441.441 L 405.118 441.018 C 422.742 412.322 437.149 379.618 447.798 344.153 C 456.98 313.122 461.612 279.546 461.388 245.656 C 460.852 212.073 455.479 179.043 445.637 148.791 C 434.084 113.636 418.836 81.429 400.467 53.381 L 399.977 52.594 C 396.556 47.012 394.746 39.669 394.916 32.132 C 395.116 24.431 397.291 17.137 400.996 11.73 L 401.527 11.003 C 405.289 5.935 410.239 3.241 415.319 3.497 C 420.509 3.8 425.426 7.025 429.069 12.517 L 429.559 13.243 C 451.027 46.328 468.757 84.33 482.075 125.787 C 493.892 163.116 500.311 203.701 500.926 244.93 C 501.2 286.163 495.64 327.014 484.605 364.857 C 472.478 406.207 455.943 444.396 435.639 477.947 C 435.271 478.994 434.807 479.951 434.252 480.793 L 434.211 480.914 Z M 360.069 391.255 C 349.382 407.363 330.952 400.274 326.886 378.492 C 326.598 376.943 326.396 375.356 326.283 373.759 C 325.724 366.014 327.262 358.261 330.567 352.206 L 330.567 351.903 C 339.356 336.193 346.469 318.571 351.664 299.658 C 360.992 265.741 360.992 227.754 351.664 193.834 L 351.664 193.35 C 346.551 174.824 339.532 157.582 330.853 142.254 L 330.241 141.164 C 327.327 135.267 325.99 127.978 326.487 120.702 C 326.973 112.994 329.551 105.917 333.628 101.086 L 334.158 100.36 C 338.197 95.735 343.279 93.567 348.359 94.307 C 353.556 95.094 358.336 98.925 361.619 104.961 L 361.906 105.507 C 373.384 126.024 382.598 149.112 389.204 173.917 C 395.345 197.048 398.474 221.7 398.426 246.564 C 398.298 271.65 395.051 296.484 388.837 319.818 C 382.083 344.893 372.768 368.274 361.213 389.135 C 360.862 389.745 360.478 390.315 360.069 390.831 L 360.069 391.255 Z" style="fill: rgb(255, 203, 102);"/>
</svg>