<?xml version="1.0" encoding="utf-8"?>
<svg viewBox="0 0 500 500" xmlns="http://www.w3.org/2000/svg">
  <path d="M 415.217 -1.897 L 415.217 101.959 L 366.726 150.514 L 330.768 114.506 L 323.82 121.467 L 175.015 270.466 L 294.372 389.979 L 238.88 445.542 L 238.882 498.512 L 258.532 498.512 L 258.532 453.694 L 308.266 403.893 L 330.768 426.423 L 486.515 270.467 L 423.254 207.121 L 494.172 136.105 L 494.172 -1.897 L 474.523 -1.897 L 474.523 127.955 L 409.358 193.207 L 380.619 164.429 L 434.865 110.11 L 434.865 -1.897 L 415.217 -1.897 Z M 0.555 9.587 L 0.555 29.263 L 196.769 29.263 L 243.301 75.857 C 240.609 80.482 239.061 85.856 239.061 91.594 C 239.061 108.885 253.059 122.904 270.325 122.904 C 287.589 122.904 301.586 108.885 301.586 91.595 C 301.586 74.307 287.589 60.294 270.325 60.294 C 265.967 60.294 261.819 61.188 258.051 62.801 L 204.909 9.588 L 0.555 9.588 L 0.555 9.587 Z M 0.555 67.999 L 0.555 87.678 L 138.431 87.681 L 184.964 134.275 C 182.273 138.9 180.721 144.273 180.721 150.013 C 180.721 167.301 194.717 181.317 211.984 181.317 C 229.249 181.317 243.247 167.301 243.247 150.013 C 243.247 132.725 229.25 118.707 211.985 118.707 C 207.627 118.707 203.481 119.602 199.711 121.215 L 146.57 68.002 L 0.557 68.002 L 0.555 67.999 Z M 88.234 126.415 L 0.556 126.417 L 0.556 146.096 L 80.097 146.093 L 126.628 192.694 C 123.938 197.316 122.388 202.692 122.388 208.43 C 122.388 225.718 136.385 239.735 153.651 239.735 C 170.916 239.735 184.911 225.718 184.911 208.429 C 184.911 191.14 170.916 177.122 153.651 177.122 C 149.292 177.122 145.144 178.018 141.374 179.631 L 88.233 126.415 L 88.234 126.415 Z M 330.768 142.335 L 458.726 270.468 L 330.768 398.593 L 202.808 270.468 L 330.768 142.338 L 330.768 142.335 Z M 329.45 171.171 L 230.007 270.746 L 329.91 370.787 L 343.805 356.874 L 257.798 270.747 L 343.346 185.084 L 329.45 171.17 L 329.45 171.171 Z M 0.557 193.87 L 0.557 247.785 L 168.931 416.382 L 168.931 498.512 L 188.583 498.512 L 188.583 382.142 L 0.557 193.869 L 0.557 193.87 Z M 364.905 202.711 L 351.013 216.623 L 405.143 270.828 L 350.708 325.335 L 364.607 339.248 L 432.934 270.828 L 364.908 202.71 L 364.905 202.711 Z M 333.435 237.624 C 315.086 237.624 300.216 252.52 300.216 270.889 C 300.216 289.257 315.087 304.15 333.433 304.15 C 351.781 304.15 366.652 289.257 366.652 270.889 C 366.652 252.517 351.781 237.623 333.434 237.623 L 333.435 237.624 Z M 0.555 288.651 L 0.555 342.566 L 100.326 442.464 L 100.326 498.511 L 119.975 498.511 L 119.975 408.227 L 0.557 288.651 L 0.555 288.651 Z M 449.935 365.674 C 432.669 365.674 418.671 379.69 418.671 396.977 C 418.671 414.267 432.669 428.286 449.935 428.286 C 454.135 428.286 458.138 427.449 461.795 425.946 L 500.3 464.497 L 500.3 436.673 L 476.745 413.089 C 479.571 408.382 481.2 402.871 481.2 396.978 C 481.2 379.691 467.201 365.675 449.935 365.675 L 449.935 365.674 Z M 0.555 384.295 L 0.555 438.213 L 33.461 471.158 L 33.459 498.514 L 53.108 498.514 L 53.114 436.925 L 0.555 384.295 Z M 391.603 424.09 C 374.337 424.09 360.339 438.106 360.339 455.395 C 360.339 472.683 374.334 486.698 391.602 486.698 C 395.295 486.698 398.838 486.053 402.126 484.876 L 415.748 498.51 L 443.54 498.51 L 417.695 472.633 C 420.957 467.688 422.864 461.765 422.864 455.394 C 422.864 438.104 408.868 424.088 391.602 424.088 L 391.603 424.09 Z" style="fill: rgb(255, 219, 110);"/>
</svg>